REM DIRINDEX 1\2,1\3\7,1\3\8,1\4\9,1\4\10,1\4\11,1\5\12,1\5\13,1\5\14,1\6\15,1\6\16,1\6\17
REM DIRNAME "folder01","folder02","folder03","folder04","folder05","folder06","folder07","folder08","folder09","folder10","folder11","folder12","folder13","folder14","folder15","folder16","folder17"
TITLE ""
FILE "2Q_t_0271-0287.mp3" MP3
  TRACK 01 AUDIO
    TITLE "0:"
    INDEX 01 00:00:00
  TRACK 02 AUDIO
    TITLE "7:cjc174_2282"
    INDEX 01 00:00:12
  TRACK 03 AUDIO
    TITLE "0:"
    INDEX 01 00:01:31
  TRACK 04 AUDIO
    TITLE "8:cjc174_2283"
    INDEX 01 00:02:01
  TRACK 05 AUDIO
    TITLE "0:"
    INDEX 01 00:03:13
  TRACK 06 AUDIO
    TITLE "7:cjc174_2284"
    INDEX 01 00:03:58
  TRACK 07 AUDIO
    TITLE "0:"
    INDEX 01 00:05:04
  TRACK 08 AUDIO
    TITLE "8:cjc174_2285"
    INDEX 01 00:05:57
  TRACK 09 AUDIO
    TITLE "0:"
    INDEX 01 00:08:55
  TRACK 10 AUDIO
    TITLE "7:cjc174_2286"
    INDEX 01 00:09:23
  TRACK 11 AUDIO
    TITLE "0:"
    INDEX 01 00:10:28
  TRACK 12 AUDIO
    TITLE "8:cjc174_2287"
    INDEX 01 00:11:06
  TRACK 13 AUDIO
    TITLE "0:"
    INDEX 01 00:12:17
  TRACK 14 AUDIO
    TITLE "7:cjc174_2288"
    INDEX 01 00:12:62
  TRACK 15 AUDIO
    TITLE "0:"
    INDEX 01 00:14:12
  TRACK 16 AUDIO
    TITLE "8:cjc174_2289"
    INDEX 01 00:14:57
  TRACK 17 AUDIO
    TITLE "0:"
    INDEX 01 00:16:70
  TRACK 18 AUDIO
    TITLE "7:cjc174_2290"
    INDEX 01 00:17:38
  TRACK 19 AUDIO
    TITLE "0:"
    INDEX 01 00:18:43
  TRACK 20 AUDIO
    TITLE "8:cjc174_2291"
    INDEX 01 00:19:21
  TRACK 21 AUDIO
    TITLE "0:"
    INDEX 01 00:21:22
  TRACK 22 AUDIO
    TITLE "7:cjc174_2292"
    INDEX 01 00:21:67
  TRACK 23 AUDIO
    TITLE "0:"
    INDEX 01 00:23:05
  TRACK 24 AUDIO
    TITLE "8:cjc174_2293"
    INDEX 01 00:23:52
  TRACK 25 AUDIO
    TITLE "0:"
    INDEX 01 00:25:73
  TRACK 26 AUDIO
    TITLE "7:cjc174_2294"
    INDEX 01 00:26:43
  TRACK 27 AUDIO
    TITLE "0:"
    INDEX 01 00:27:68
  TRACK 28 AUDIO
    TITLE "8:cjc174_2295"
    INDEX 01 00:28:44
  TRACK 29 AUDIO
    TITLE "0:"
    INDEX 01 00:29:49
  TRACK 30 AUDIO
    TITLE "7:cjc174_2296"
    INDEX 01 00:30:19
  TRACK 31 AUDIO
    TITLE "0:"
    INDEX 01 00:31:30
  TRACK 32 AUDIO
    TITLE "8:cjc174_2297"
    INDEX 01 00:32:02
  TRACK 33 AUDIO
    TITLE "0:"
    INDEX 01 00:35:18
  TRACK 34 AUDIO
    TITLE "7:cjc174_2298"
    INDEX 01 00:35:64
  TRACK 35 AUDIO
    TITLE "0:"
    INDEX 01 00:36:69
  TRACK 36 AUDIO
    TITLE "8:cjc174_2299"
    INDEX 01 00:37:47
  TRACK 37 AUDIO
    TITLE "0:"
    INDEX 01 00:39:59
  TRACK 38 AUDIO
    TITLE "7:cjc174_2300"
    INDEX 01 00:40:27
  TRACK 39 AUDIO
    TITLE "0:"
    INDEX 01 00:41:60
  TRACK 40 AUDIO
    TITLE "8:cjc174_2301"
    INDEX 01 00:42:34
  TRACK 41 AUDIO
    TITLE "0:"
    INDEX 01 00:43:57
  TRACK 42 AUDIO
    TITLE "7:cjc174_2302"
    INDEX 01 00:44:25
  TRACK 43 AUDIO
    TITLE "0:"
    INDEX 01 00:45:42
  TRACK 44 AUDIO
    TITLE "8:cjc174_2303"
    INDEX 01 00:46:16
  TRACK 45 AUDIO
    TITLE "0:"
    INDEX 01 00:47:33
  TRACK 46 AUDIO
    TITLE "2:cjc174_2304"
    INDEX 01 00:48:03
  TRACK 47 AUDIO
    TITLE "0:"
    INDEX 01 00:49:26
  TRACK 48 AUDIO
    TITLE "7:cjc174_2305"
    INDEX 01 00:49:71
  TRACK 49 AUDIO
    TITLE "0:"
    INDEX 01 00:51:23
  TRACK 50 AUDIO
    TITLE "8:cjc174_2306"
    INDEX 01 00:51:74
  TRACK 51 AUDIO
    TITLE "0:"
    INDEX 01 00:54:33
  TRACK 52 AUDIO
    TITLE "7:cjc174_2307"
    INDEX 01 00:55:03
  TRACK 53 AUDIO
    TITLE "0:"
    INDEX 01 00:56:11
  TRACK 54 AUDIO
    TITLE "8:cjc174_2308"
    INDEX 01 00:56:62
  TRACK 55 AUDIO
    TITLE "0:"
    INDEX 01 00:58:08
  TRACK 56 AUDIO
    TITLE "7:cjc174_2309"
    INDEX 01 00:58:53
  TRACK 57 AUDIO
    TITLE "0:"
    INDEX 01 00:59:66
  TRACK 58 AUDIO
    TITLE "8:cjc174_2310"
    INDEX 01 01:00:50
  TRACK 59 AUDIO
    TITLE "0:"
    INDEX 01 01:03:07
  TRACK 60 AUDIO
    TITLE "7:cjc174_2311"
    INDEX 01 01:03:52
  TRACK 61 AUDIO
    TITLE "0:"
    INDEX 01 01:04:46
  TRACK 62 AUDIO
    TITLE "8:cjc174_2312"
    INDEX 01 01:05:25
  TRACK 63 AUDIO
    TITLE "0:"
    INDEX 01 01:09:06
  TRACK 64 AUDIO
    TITLE "7:cjc174_2313"
    INDEX 01 01:09:51
  TRACK 65 AUDIO
    TITLE "0:"
    INDEX 01 01:10:64
  TRACK 66 AUDIO
    TITLE "8:cjc174_2314"
    INDEX 01 01:11:34
  TRACK 67 AUDIO
    TITLE "0:"
    INDEX 01 01:12:45
  TRACK 68 AUDIO
    TITLE "7:cjc174_2315"
    INDEX 01 01:13:15
  TRACK 69 AUDIO
    TITLE "0:"
    INDEX 01 01:14:34
  TRACK 70 AUDIO
    TITLE "8:cjc174_2316"
    INDEX 01 01:15:06
  TRACK 71 AUDIO
    TITLE "0:"
    INDEX 01 01:17:56
